# xmcd
#
# Track frame offsets:
#	188
#	68773
#	113263
#	145253
#	188963
#
# Disc length: 3731 seconds
#
# Revision: 1
# Processed by: cddbd v1.5.2PL0 Copyright (c) Steve Scherf et al.
# Submitted via: CDex 1.50Beta5
#
DISCID=3d0e9105
DTITLE=Kurt Sanderling - Brahms: Symphony No.3
DYEAR=1990
DGENRE=Classical
TTITLE0=ザンデルリンク＆ベルリン交響楽団/Symphony No.3 in F Major, Op.90/ 1.Allegro con brio
TTITLE1=ザンデルリンク＆ベルリン交響楽団/Symphony No.3 in F Major, Op.90/ 2.Andante
TTITLE2=ザンデルリンク＆ベルリン交響楽団/Symphony No.3 in F Major, Op.90/ 3.Poco Allegretto
TTITLE3=ザンデルリンク＆ベルリン交響楽団/Symphony No.3 in F Major, Op.90/ 4.Allegro
TTITLE4=Variations on a theme of Joseph Haydn, Op.56a/Brahms
EXTD=
EXTT0=
EXTT1=
EXTT2=
EXTT3=
EXTT4=
PLAYORDER=
